<svg width="624" height="624" viewBox="0 0 624 624" fill="none" xmlns="http://www.w3.org/2000/svg">
<path fill-rule="evenodd" clip-rule="evenodd" d="M151 418V256H473V418H151ZM179.848 388.771H240.223L240.22 375.066H222.78V285.428H193.264V298.927H179.848V314.521H193.264V375.271H179.848V388.771ZM253.638 388.771H340.848L341.181 285.224H312V375.07H282.751V285.224H253.638V388.771ZM430.271 328.021H443.687L443.682 298.722H430.266V285.222H354.665V388.567H383.779V345.57H430.271V328.021ZM414.769 298.93H383.777V328.225H414.769V298.93Z" fill="#82E75E"/>
<path d="M91.4445 531V517.92H94.0045L95.5645 523.02L96.1045 524.98H96.1845L96.7045 523.02L98.2845 517.92H100.845V531H98.8045V525.72C98.8045 525.373 98.8112 524.967 98.8245 524.5C98.8512 524.02 98.8845 523.52 98.9245 523C98.9645 522.48 99.0045 521.993 99.0445 521.54C99.0845 521.073 99.1179 520.68 99.1445 520.36H99.0845L98.2045 523.4L96.7645 527.54H95.4445L94.0245 523.4L93.1645 520.36H93.1045C93.1445 520.68 93.1845 521.073 93.2245 521.54C93.2645 521.993 93.2979 522.48 93.3245 523C93.3645 523.52 93.3912 524.02 93.4045 524.5C93.4312 524.967 93.4445 525.373 93.4445 525.72V531H91.4445ZM108.077 531V523H103.817V521.18H110.377V531H108.077ZM109.057 519.38C108.59 519.38 108.197 519.24 107.877 518.96C107.57 518.68 107.417 518.307 107.417 517.84C107.417 517.373 107.57 517 107.877 516.72C108.197 516.427 108.59 516.28 109.057 516.28C109.537 516.28 109.93 516.427 110.237 516.72C110.543 517 110.697 517.373 110.697 517.84C110.697 518.307 110.543 518.68 110.237 518.96C109.93 519.24 109.537 519.38 109.057 519.38ZM133.001 531.24C131.974 531.24 131.048 531.04 130.221 530.64C129.408 530.227 128.761 529.64 128.281 528.88C127.814 528.107 127.581 527.18 127.581 526.1C127.581 525.007 127.834 524.08 128.341 523.32C128.861 522.547 129.548 521.96 130.401 521.56C131.254 521.147 132.174 520.94 133.161 520.94C133.961 520.94 134.668 521.073 135.281 521.34C135.894 521.593 136.401 521.92 136.801 522.32L135.701 523.76C135.314 523.453 134.921 523.22 134.521 523.06C134.134 522.9 133.721 522.82 133.281 522.82C132.628 522.82 132.048 522.96 131.541 523.24C131.048 523.507 130.661 523.887 130.381 524.38C130.101 524.873 129.961 525.447 129.961 526.1C129.961 526.753 130.094 527.327 130.361 527.82C130.641 528.313 131.021 528.693 131.501 528.96C131.994 529.227 132.568 529.36 133.221 529.36C133.781 529.36 134.294 529.253 134.761 529.04C135.228 528.827 135.648 528.573 136.021 528.28L136.981 529.76C136.421 530.24 135.794 530.607 135.101 530.86C134.408 531.113 133.708 531.24 133.001 531.24ZM144.113 531.24C143.247 531.24 142.44 531.04 141.693 530.64C140.947 530.227 140.34 529.64 139.873 528.88C139.407 528.107 139.173 527.18 139.173 526.1C139.173 525.007 139.407 524.08 139.873 523.32C140.34 522.547 140.947 521.96 141.693 521.56C142.44 521.147 143.247 520.94 144.113 520.94C144.98 520.94 145.787 521.147 146.533 521.56C147.28 521.96 147.887 522.547 148.353 523.32C148.82 524.08 149.053 525.007 149.053 526.1C149.053 527.18 148.82 528.107 148.353 528.88C147.887 529.64 147.28 530.227 146.533 530.64C145.787 531.04 144.98 531.24 144.113 531.24ZM144.113 529.36C144.647 529.36 145.107 529.227 145.493 528.96C145.88 528.693 146.173 528.313 146.373 527.82C146.573 527.327 146.673 526.753 146.673 526.1C146.673 525.447 146.573 524.873 146.373 524.38C146.173 523.887 145.88 523.507 145.493 523.24C145.107 522.96 144.647 522.82 144.113 522.82C143.58 522.82 143.12 522.96 142.733 523.24C142.36 523.507 142.067 523.887 141.853 524.38C141.653 524.873 141.553 525.447 141.553 526.1C141.553 526.753 141.653 527.327 141.853 527.82C142.067 528.313 142.36 528.693 142.733 528.96C143.12 529.227 143.58 529.36 144.113 529.36ZM151.745 531V521.18H153.645L153.825 522.66H153.905C154.372 522.18 154.885 521.773 155.445 521.44C156.019 521.107 156.685 520.94 157.445 520.94C158.579 520.94 159.412 521.287 159.945 521.98C160.479 522.673 160.745 523.653 160.745 524.92V531H158.425V525.22C158.425 524.433 158.285 523.853 158.005 523.48C157.725 523.107 157.252 522.92 156.585 522.92C156.105 522.92 155.679 523.033 155.305 523.26C154.932 523.487 154.519 523.833 154.065 524.3V531H151.745ZM168.098 531.24C167.231 531.24 166.424 531.04 165.678 530.64C164.931 530.227 164.324 529.64 163.858 528.88C163.391 528.107 163.158 527.18 163.158 526.1C163.158 525.007 163.391 524.08 163.858 523.32C164.324 522.547 164.931 521.96 165.678 521.56C166.424 521.147 167.231 520.94 168.098 520.94C168.964 520.94 169.771 521.147 170.518 521.56C171.264 521.96 171.871 522.547 172.338 523.32C172.804 524.08 173.038 525.007 173.038 526.1C173.038 527.18 172.804 528.107 172.338 528.88C171.871 529.64 171.264 530.227 170.518 530.64C169.771 531.04 168.964 531.24 168.098 531.24ZM168.098 529.36C168.631 529.36 169.091 529.227 169.478 528.96C169.864 528.693 170.158 528.313 170.358 527.82C170.558 527.327 170.658 526.753 170.658 526.1C170.658 525.447 170.558 524.873 170.358 524.38C170.158 523.887 169.864 523.507 169.478 523.24C169.091 522.96 168.631 522.82 168.098 522.82C167.564 522.82 167.104 522.96 166.718 523.24C166.344 523.507 166.051 523.887 165.838 524.38C165.638 524.873 165.538 525.447 165.538 526.1C165.538 526.753 165.638 527.327 165.838 527.82C166.051 528.313 166.344 528.693 166.718 528.96C167.104 529.227 167.564 529.36 168.098 529.36ZM180.97 531.24C179.943 531.24 179.017 531.04 178.19 530.64C177.377 530.227 176.73 529.64 176.25 528.88C175.783 528.107 175.55 527.18 175.55 526.1C175.55 525.007 175.803 524.08 176.31 523.32C176.83 522.547 177.517 521.96 178.37 521.56C179.223 521.147 180.143 520.94 181.13 520.94C181.93 520.94 182.637 521.073 183.25 521.34C183.863 521.593 184.37 521.92 184.77 522.32L183.67 523.76C183.283 523.453 182.89 523.22 182.49 523.06C182.103 522.9 181.69 522.82 181.25 522.82C180.597 522.82 180.017 522.96 179.51 523.24C179.017 523.507 178.63 523.887 178.35 524.38C178.07 524.873 177.93 525.447 177.93 526.1C177.93 526.753 178.063 527.327 178.33 527.82C178.61 528.313 178.99 528.693 179.47 528.96C179.963 529.227 180.537 529.36 181.19 529.36C181.75 529.36 182.263 529.253 182.73 529.04C183.197 528.827 183.617 528.573 183.99 528.28L184.95 529.76C184.39 530.24 183.763 530.607 183.07 530.86C182.377 531.113 181.677 531.24 180.97 531.24ZM192.022 531V523H187.762V521.18H194.322V531H192.022ZM193.002 519.38C192.535 519.38 192.142 519.24 191.822 518.96C191.515 518.68 191.362 518.307 191.362 517.84C191.362 517.373 191.515 517 191.822 516.72C192.142 516.427 192.535 516.28 193.002 516.28C193.482 516.28 193.875 516.427 194.182 516.72C194.489 517 194.642 517.373 194.642 517.84C194.642 518.307 194.489 518.68 194.182 518.96C193.875 519.24 193.482 519.38 193.002 519.38ZM198.994 531V521.18H200.774L200.954 522.42H201.014C201.228 521.993 201.501 521.64 201.834 521.36C202.168 521.08 202.621 520.94 203.194 520.94C203.648 520.94 204.028 521.08 204.334 521.36C204.641 521.627 204.854 522.033 204.974 522.58C205.201 522.1 205.488 521.707 205.834 521.4C206.181 521.093 206.641 520.94 207.214 520.94C207.908 520.94 208.441 521.213 208.814 521.76C209.201 522.293 209.394 523.053 209.394 524.04V531H207.174V524.2C207.174 523.333 206.914 522.9 206.394 522.9C206.128 522.9 205.901 523 205.714 523.2C205.541 523.4 205.354 523.713 205.154 524.14V531H203.234V524.2C203.234 523.773 203.174 523.453 203.054 523.24C202.934 523.013 202.734 522.9 202.454 522.9C202.201 522.9 201.981 523 201.794 523.2C201.608 523.4 201.421 523.713 201.234 524.14V531H198.994ZM216.006 531V523H211.746V521.18H218.306V531H216.006ZM216.986 519.38C216.52 519.38 216.126 519.24 215.806 518.96C215.5 518.68 215.346 518.307 215.346 517.84C215.346 517.373 215.5 517 215.806 516.72C216.126 516.427 216.52 516.28 216.986 516.28C217.466 516.28 217.86 516.427 218.166 516.72C218.473 517 218.626 517.373 218.626 517.84C218.626 518.307 218.473 518.68 218.166 518.96C217.86 519.24 217.466 519.38 216.986 519.38ZM228.659 531.24C227.659 531.24 226.752 531.04 225.939 530.64C225.125 530.227 224.479 529.64 223.999 528.88C223.519 528.107 223.279 527.173 223.279 526.08C223.279 525.013 223.519 524.1 223.999 523.34C224.479 522.567 225.105 521.973 225.879 521.56C226.652 521.147 227.479 520.94 228.359 520.94C229.332 520.94 230.152 521.14 230.819 521.54C231.499 521.94 232.012 522.493 232.359 523.2C232.719 523.893 232.899 524.693 232.899 525.6C232.899 525.827 232.885 526.047 232.859 526.26C232.845 526.46 232.825 526.627 232.799 526.76H224.939V525.12H231.319L230.879 525.64C230.879 524.667 230.659 523.94 230.219 523.46C229.792 522.967 229.192 522.72 228.419 522.72C227.872 522.72 227.379 522.847 226.939 523.1C226.512 523.353 226.172 523.733 225.919 524.24C225.665 524.733 225.539 525.347 225.539 526.08C225.539 526.84 225.679 527.467 225.959 527.96C226.252 528.453 226.652 528.827 227.159 529.08C227.679 529.333 228.279 529.46 228.959 529.46C229.479 529.46 229.959 529.387 230.399 529.24C230.839 529.093 231.279 528.893 231.719 528.64L232.499 530.08C231.979 530.413 231.392 530.693 230.739 530.92C230.085 531.133 229.392 531.24 228.659 531.24ZM235.691 531V521.18H237.591L237.771 522.66H237.851C238.317 522.18 238.831 521.773 239.391 521.44C239.964 521.107 240.631 520.94 241.391 520.94C242.524 520.94 243.357 521.287 243.891 521.98C244.424 522.673 244.691 523.653 244.691 524.92V531H242.371V525.22C242.371 524.433 242.231 523.853 241.951 523.48C241.671 523.107 241.197 522.92 240.531 522.92C240.051 522.92 239.624 523.033 239.251 523.26C238.877 523.487 238.464 523.833 238.011 524.3V531H235.691ZM253.863 531.24C252.863 531.24 252.07 531.067 251.483 530.72C250.896 530.36 250.476 529.867 250.223 529.24C249.97 528.613 249.843 527.887 249.843 527.06V523H247.223V521.28L249.943 521.18L250.243 518.1H252.143V521.18H256.623V523H252.143V527.04C252.143 527.573 252.216 528.02 252.363 528.38C252.51 528.727 252.75 528.987 253.083 529.16C253.416 529.32 253.856 529.4 254.403 529.4C254.83 529.4 255.216 529.367 255.563 529.3C255.91 529.233 256.243 529.14 256.563 529.02L257.003 530.68C256.563 530.827 256.09 530.953 255.583 531.06C255.076 531.18 254.503 531.24 253.863 531.24ZM264.035 531.24C263.168 531.24 262.362 531.04 261.615 530.64C260.868 530.227 260.262 529.64 259.795 528.88C259.328 528.107 259.095 527.18 259.095 526.1C259.095 525.007 259.328 524.08 259.795 523.32C260.262 522.547 260.868 521.96 261.615 521.56C262.362 521.147 263.168 520.94 264.035 520.94C264.902 520.94 265.708 521.147 266.455 521.56C267.202 521.96 267.808 522.547 268.275 523.32C268.742 524.08 268.975 525.007 268.975 526.1C268.975 527.18 268.742 528.107 268.275 528.88C267.808 529.64 267.202 530.227 266.455 530.64C265.708 531.04 264.902 531.24 264.035 531.24ZM264.035 529.36C264.568 529.36 265.028 529.227 265.415 528.96C265.802 528.693 266.095 528.313 266.295 527.82C266.495 527.327 266.595 526.753 266.595 526.1C266.595 525.447 266.495 524.873 266.295 524.38C266.095 523.887 265.802 523.507 265.415 523.24C265.028 522.96 264.568 522.82 264.035 522.82C263.502 522.82 263.042 522.96 262.655 523.24C262.282 523.507 261.988 523.887 261.775 524.38C261.575 524.873 261.475 525.447 261.475 526.1C261.475 526.753 261.575 527.327 261.775 527.82C261.988 528.313 262.282 528.693 262.655 528.96C263.042 529.227 263.502 529.36 264.035 529.36ZM287.28 531.24C286.026 531.24 285.013 530.787 284.24 529.88C283.466 528.973 283.08 527.713 283.08 526.1C283.08 525.033 283.286 524.113 283.7 523.34C284.113 522.567 284.653 521.973 285.32 521.56C285.986 521.147 286.686 520.94 287.42 520.94C287.98 520.94 288.473 521.04 288.9 521.24C289.34 521.44 289.746 521.727 290.12 522.1H290.18L290.06 520.44V516.88H292.38V531H290.48L290.3 529.86H290.24C289.866 530.233 289.42 530.56 288.9 530.84C288.38 531.107 287.84 531.24 287.28 531.24ZM287.84 529.34C288.24 529.34 288.626 529.247 289 529.06C289.373 528.86 289.726 528.56 290.06 528.16V523.74C289.713 523.407 289.366 523.173 289.02 523.04C288.673 522.907 288.32 522.84 287.96 522.84C287.506 522.84 287.086 522.967 286.7 523.22C286.326 523.473 286.026 523.84 285.8 524.32C285.573 524.8 285.46 525.387 285.46 526.08C285.46 527.133 285.666 527.94 286.08 528.5C286.506 529.06 287.093 529.34 287.84 529.34ZM300.612 531.24C299.612 531.24 298.705 531.04 297.892 530.64C297.078 530.227 296.432 529.64 295.952 528.88C295.472 528.107 295.232 527.173 295.232 526.08C295.232 525.013 295.472 524.1 295.952 523.34C296.432 522.567 297.058 521.973 297.832 521.56C298.605 521.147 299.432 520.94 300.312 520.94C301.285 520.94 302.105 521.14 302.772 521.54C303.452 521.94 303.965 522.493 304.312 523.2C304.672 523.893 304.852 524.693 304.852 525.6C304.852 525.827 304.838 526.047 304.812 526.26C304.798 526.46 304.778 526.627 304.752 526.76H296.892V525.12H303.272L302.832 525.64C302.832 524.667 302.612 523.94 302.172 523.46C301.745 522.967 301.145 522.72 300.372 522.72C299.825 522.72 299.332 522.847 298.892 523.1C298.465 523.353 298.125 523.733 297.872 524.24C297.618 524.733 297.492 525.347 297.492 526.08C297.492 526.84 297.632 527.467 297.912 527.96C298.205 528.453 298.605 528.827 299.112 529.08C299.632 529.333 300.232 529.46 300.912 529.46C301.432 529.46 301.912 529.387 302.352 529.24C302.792 529.093 303.232 528.893 303.672 528.64L304.452 530.08C303.932 530.413 303.345 530.693 302.692 530.92C302.038 531.133 301.345 531.24 300.612 531.24ZM319.636 534.88V521.18H321.536L321.716 522.3H321.776C322.203 521.9 322.689 521.573 323.236 521.32C323.796 521.067 324.356 520.94 324.916 520.94C325.783 520.94 326.509 521.147 327.096 521.56C327.683 521.973 328.136 522.553 328.456 523.3C328.776 524.047 328.936 524.927 328.936 525.94C328.936 527.06 328.729 528.013 328.316 528.8C327.903 529.587 327.363 530.193 326.696 530.62C326.043 531.033 325.336 531.24 324.576 531.24C324.136 531.24 323.676 531.14 323.196 530.94C322.729 530.74 322.296 530.453 321.896 530.08H321.836L321.956 531.8V534.88H319.636ZM324.096 529.34C324.563 529.34 324.983 529.213 325.356 528.96C325.729 528.707 326.023 528.333 326.236 527.84C326.449 527.333 326.556 526.707 326.556 525.96C326.556 525.307 326.476 524.747 326.316 524.28C326.156 523.813 325.909 523.46 325.576 523.22C325.256 522.967 324.823 522.84 324.276 522.84C323.903 522.84 323.523 522.933 323.136 523.12C322.749 523.307 322.356 523.607 321.956 524.02V528.44C322.316 528.76 322.689 528.993 323.076 529.14C323.463 529.273 323.803 529.34 324.096 529.34ZM332.588 531V521.18H334.488L334.688 523.4H334.748C335.242 522.6 335.848 521.993 336.568 521.58C337.302 521.153 338.088 520.94 338.928 520.94C339.328 520.94 339.675 520.973 339.968 521.04C340.262 521.107 340.548 521.207 340.828 521.34L340.348 523.28C340.028 523.173 339.742 523.1 339.488 523.06C339.248 523.007 338.942 522.98 338.568 522.98C337.902 522.98 337.248 523.173 336.608 523.56C335.982 523.947 335.415 524.62 334.908 525.58V531H332.588ZM347.98 531.24C347.114 531.24 346.307 531.04 345.56 530.64C344.814 530.227 344.207 529.64 343.74 528.88C343.274 528.107 343.04 527.18 343.04 526.1C343.04 525.007 343.274 524.08 343.74 523.32C344.207 522.547 344.814 521.96 345.56 521.56C346.307 521.147 347.114 520.94 347.98 520.94C348.847 520.94 349.654 521.147 350.4 521.56C351.147 521.96 351.754 522.547 352.22 523.32C352.687 524.08 352.92 525.007 352.92 526.1C352.92 527.18 352.687 528.107 352.22 528.88C351.754 529.64 351.147 530.227 350.4 530.64C349.654 531.04 348.847 531.24 347.98 531.24ZM347.98 529.36C348.514 529.36 348.974 529.227 349.36 528.96C349.747 528.693 350.04 528.313 350.24 527.82C350.44 527.327 350.54 526.753 350.54 526.1C350.54 525.447 350.44 524.873 350.24 524.38C350.04 523.887 349.747 523.507 349.36 523.24C348.974 522.96 348.514 522.82 347.98 522.82C347.447 522.82 346.987 522.96 346.6 523.24C346.227 523.507 345.934 523.887 345.72 524.38C345.52 524.873 345.42 525.447 345.42 526.1C345.42 526.753 345.52 527.327 345.72 527.82C345.934 528.313 346.227 528.693 346.6 528.96C346.987 529.227 347.447 529.36 347.98 529.36ZM359.693 535.34C358.786 535.34 357.999 535.24 357.333 535.04C356.666 534.853 356.146 534.567 355.773 534.18C355.399 533.793 355.213 533.307 355.213 532.72C355.213 532.333 355.346 531.96 355.613 531.6C355.879 531.24 356.266 530.927 356.773 530.66V530.58C356.519 530.42 356.286 530.213 356.073 529.96C355.873 529.693 355.773 529.353 355.773 528.94C355.773 528.62 355.879 528.293 356.093 527.96C356.306 527.627 356.593 527.34 356.953 527.1V527.02C356.606 526.767 356.306 526.427 356.053 526C355.813 525.56 355.693 525.053 355.693 524.48C355.693 523.72 355.879 523.08 356.253 522.56C356.626 522.027 357.119 521.627 357.733 521.36C358.346 521.08 359.013 520.94 359.733 520.94C360.319 520.94 360.833 521.02 361.273 521.18H365.293V522.94H363.033C363.206 523.127 363.353 523.367 363.473 523.66C363.606 523.94 363.673 524.24 363.673 524.56C363.673 525.28 363.493 525.893 363.133 526.4C362.786 526.893 362.319 527.267 361.733 527.52C361.146 527.773 360.479 527.9 359.733 527.9C359.506 527.9 359.259 527.88 358.993 527.84C358.739 527.787 358.486 527.713 358.233 527.62C358.033 527.74 357.879 527.873 357.773 528.02C357.679 528.167 357.633 528.34 357.633 528.54C357.633 528.847 357.786 529.08 358.093 529.24C358.413 529.387 358.879 529.46 359.493 529.46H361.493C362.773 529.46 363.733 529.647 364.373 530.02C365.026 530.38 365.353 530.993 365.353 531.86C365.353 532.5 365.119 533.087 364.653 533.62C364.199 534.153 363.546 534.573 362.693 534.88C361.853 535.187 360.853 535.34 359.693 535.34ZM359.733 526.44C360.079 526.44 360.393 526.367 360.673 526.22C360.953 526.06 361.173 525.833 361.333 525.54C361.506 525.247 361.593 524.893 361.593 524.48C361.593 524.08 361.506 523.74 361.333 523.46C361.173 523.167 360.953 522.94 360.673 522.78C360.393 522.62 360.079 522.54 359.733 522.54C359.399 522.54 359.093 522.62 358.813 522.78C358.533 522.94 358.306 523.167 358.133 523.46C357.959 523.74 357.873 524.08 357.873 524.48C357.873 524.893 357.959 525.247 358.133 525.54C358.306 525.833 358.533 526.06 358.813 526.22C359.093 526.367 359.399 526.44 359.733 526.44ZM359.973 533.82C360.613 533.82 361.166 533.747 361.633 533.6C362.113 533.453 362.479 533.26 362.733 533.02C362.999 532.78 363.133 532.52 363.133 532.24C363.133 531.853 362.966 531.593 362.633 531.46C362.313 531.34 361.819 531.28 361.153 531.28H359.593C359.273 531.28 358.993 531.267 358.753 531.24C358.513 531.213 358.293 531.18 358.093 531.14C357.746 531.34 357.499 531.547 357.353 531.76C357.206 531.973 357.133 532.193 357.133 532.42C357.133 532.86 357.379 533.2 357.873 533.44C358.366 533.693 359.066 533.82 359.973 533.82ZM368.565 531V521.18H370.465L370.665 523.4H370.725C371.218 522.6 371.825 521.993 372.545 521.58C373.278 521.153 374.065 520.94 374.905 520.94C375.305 520.94 375.652 520.973 375.945 521.04C376.238 521.107 376.525 521.207 376.805 521.34L376.325 523.28C376.005 523.173 375.718 523.1 375.465 523.06C375.225 523.007 374.918 522.98 374.545 522.98C373.878 522.98 373.225 523.173 372.585 523.56C371.958 523.947 371.392 524.62 370.885 525.58V531H368.565ZM382.657 531.24C382.017 531.24 381.45 531.12 380.957 530.88C380.464 530.627 380.077 530.287 379.797 529.86C379.517 529.433 379.377 528.933 379.377 528.36C379.377 527.267 379.897 526.433 380.937 525.86C381.99 525.273 383.73 524.893 386.157 524.72C386.13 524.36 386.03 524.033 385.857 523.74C385.697 523.447 385.45 523.22 385.117 523.06C384.784 522.887 384.35 522.8 383.817 522.8C383.444 522.8 383.077 522.847 382.717 522.94C382.357 523.033 381.997 523.16 381.637 523.32C381.29 523.48 380.944 523.653 380.597 523.84L379.757 522.3C380.157 522.06 380.597 521.84 381.077 521.64C381.557 521.427 382.064 521.26 382.597 521.14C383.13 521.007 383.677 520.94 384.237 520.94C385.157 520.94 385.924 521.107 386.537 521.44C387.164 521.76 387.637 522.24 387.957 522.88C388.29 523.507 388.457 524.273 388.457 525.18V531H386.577L386.397 529.78H386.337C385.817 530.18 385.237 530.527 384.597 530.82C383.97 531.1 383.324 531.24 382.657 531.24ZM383.357 529.44C383.85 529.44 384.324 529.333 384.777 529.12C385.244 528.893 385.704 528.6 386.157 528.24V526.16C384.984 526.24 384.064 526.373 383.397 526.56C382.73 526.733 382.264 526.96 381.997 527.24C381.73 527.52 381.597 527.833 381.597 528.18C381.597 528.473 381.677 528.713 381.837 528.9C381.997 529.087 382.204 529.227 382.457 529.32C382.724 529.4 383.024 529.44 383.357 529.44ZM390.869 531V521.18H392.649L392.829 522.42H392.889C393.103 521.993 393.376 521.64 393.709 521.36C394.043 521.08 394.496 520.94 395.069 520.94C395.523 520.94 395.903 521.08 396.209 521.36C396.516 521.627 396.729 522.033 396.849 522.58C397.076 522.1 397.363 521.707 397.709 521.4C398.056 521.093 398.516 520.94 399.089 520.94C399.783 520.94 400.316 521.213 400.689 521.76C401.076 522.293 401.269 523.053 401.269 524.04V531H399.049V524.2C399.049 523.333 398.789 522.9 398.269 522.9C398.003 522.9 397.776 523 397.589 523.2C397.416 523.4 397.229 523.713 397.029 524.14V531H395.109V524.2C395.109 523.773 395.049 523.453 394.929 523.24C394.809 523.013 394.609 522.9 394.329 522.9C394.076 522.9 393.856 523 393.669 523.2C393.483 523.4 393.296 523.713 393.109 524.14V531H390.869ZM406.641 531.24C406.001 531.24 405.435 531.12 404.941 530.88C404.448 530.627 404.061 530.287 403.781 529.86C403.501 529.433 403.361 528.933 403.361 528.36C403.361 527.267 403.881 526.433 404.921 525.86C405.975 525.273 407.715 524.893 410.141 524.72C410.115 524.36 410.015 524.033 409.841 523.74C409.681 523.447 409.435 523.22 409.101 523.06C408.768 522.887 408.335 522.8 407.801 522.8C407.428 522.8 407.061 522.847 406.701 522.94C406.341 523.033 405.981 523.16 405.621 523.32C405.275 523.48 404.928 523.653 404.581 523.84L403.741 522.3C404.141 522.06 404.581 521.84 405.061 521.64C405.541 521.427 406.048 521.26 406.581 521.14C407.115 521.007 407.661 520.94 408.221 520.94C409.141 520.94 409.908 521.107 410.521 521.44C411.148 521.76 411.621 522.24 411.941 522.88C412.275 523.507 412.441 524.273 412.441 525.18V531H410.561L410.381 529.78H410.321C409.801 530.18 409.221 530.527 408.581 530.82C407.955 531.1 407.308 531.24 406.641 531.24ZM407.341 529.44C407.835 529.44 408.308 529.333 408.761 529.12C409.228 528.893 409.688 528.6 410.141 528.24V526.16C408.968 526.24 408.048 526.373 407.381 526.56C406.715 526.733 406.248 526.96 405.981 527.24C405.715 527.52 405.581 527.833 405.581 528.18C405.581 528.473 405.661 528.713 405.821 528.9C405.981 529.087 406.188 529.227 406.441 529.32C406.708 529.4 407.008 529.44 407.341 529.44ZM420.814 531.24C419.787 531.24 418.86 531.04 418.034 530.64C417.22 530.227 416.574 529.64 416.094 528.88C415.627 528.107 415.394 527.18 415.394 526.1C415.394 525.007 415.647 524.08 416.154 523.32C416.674 522.547 417.36 521.96 418.214 521.56C419.067 521.147 419.987 520.94 420.974 520.94C421.774 520.94 422.48 521.073 423.094 521.34C423.707 521.593 424.214 521.92 424.614 522.32L423.514 523.76C423.127 523.453 422.734 523.22 422.334 523.06C421.947 522.9 421.534 522.82 421.094 522.82C420.44 522.82 419.86 522.96 419.354 523.24C418.86 523.507 418.474 523.887 418.194 524.38C417.914 524.873 417.774 525.447 417.774 526.1C417.774 526.753 417.907 527.327 418.174 527.82C418.454 528.313 418.834 528.693 419.314 528.96C419.807 529.227 420.38 529.36 421.034 529.36C421.594 529.36 422.107 529.253 422.574 529.04C423.04 528.827 423.46 528.573 423.834 528.28L424.794 529.76C424.234 530.24 423.607 530.607 422.914 530.86C422.22 531.113 421.52 531.24 420.814 531.24ZM431.866 531V523H427.606V521.18H434.166V531H431.866ZM432.846 519.38C432.379 519.38 431.986 519.24 431.666 518.96C431.359 518.68 431.206 518.307 431.206 517.84C431.206 517.373 431.359 517 431.666 516.72C431.986 516.427 432.379 516.28 432.846 516.28C433.326 516.28 433.719 516.427 434.026 516.72C434.332 517 434.486 517.373 434.486 517.84C434.486 518.307 434.332 518.68 434.026 518.96C433.719 519.24 433.326 519.38 432.846 519.38ZM443.918 531.24C443.051 531.24 442.245 531.04 441.498 530.64C440.751 530.227 440.145 529.64 439.678 528.88C439.211 528.107 438.978 527.18 438.978 526.1C438.978 525.007 439.211 524.08 439.678 523.32C440.145 522.547 440.751 521.96 441.498 521.56C442.245 521.147 443.051 520.94 443.918 520.94C444.785 520.94 445.591 521.147 446.338 521.56C447.085 521.96 447.691 522.547 448.158 523.32C448.625 524.08 448.858 525.007 448.858 526.1C448.858 527.18 448.625 528.107 448.158 528.88C447.691 529.64 447.085 530.227 446.338 530.64C445.591 531.04 444.785 531.24 443.918 531.24ZM443.918 529.36C444.451 529.36 444.911 529.227 445.298 528.96C445.685 528.693 445.978 528.313 446.178 527.82C446.378 527.327 446.478 526.753 446.478 526.1C446.478 525.447 446.378 524.873 446.178 524.38C445.978 523.887 445.685 523.507 445.298 523.24C444.911 522.96 444.451 522.82 443.918 522.82C443.385 522.82 442.925 522.96 442.538 523.24C442.165 523.507 441.871 523.887 441.658 524.38C441.458 524.873 441.358 525.447 441.358 526.1C441.358 526.753 441.458 527.327 441.658 527.82C441.871 528.313 442.165 528.693 442.538 528.96C442.925 529.227 443.385 529.36 443.918 529.36ZM451.55 531V521.18H453.45L453.63 522.66H453.71C454.177 522.18 454.69 521.773 455.25 521.44C455.823 521.107 456.49 520.94 457.25 520.94C458.383 520.94 459.217 521.287 459.75 521.98C460.283 522.673 460.55 523.653 460.55 524.92V531H458.23V525.22C458.23 524.433 458.09 523.853 457.81 523.48C457.53 523.107 457.057 522.92 456.39 522.92C455.91 522.92 455.483 523.033 455.11 523.26C454.737 523.487 454.323 523.833 453.87 524.3V531H451.55ZM478.595 531.24C477.955 531.24 477.388 531.12 476.895 530.88C476.401 530.627 476.015 530.287 475.735 529.86C475.455 529.433 475.315 528.933 475.315 528.36C475.315 527.267 475.835 526.433 476.875 525.86C477.928 525.273 479.668 524.893 482.095 524.72C482.068 524.36 481.968 524.033 481.795 523.74C481.635 523.447 481.388 523.22 481.055 523.06C480.721 522.887 480.288 522.8 479.755 522.8C479.381 522.8 479.015 522.847 478.655 522.94C478.295 523.033 477.935 523.16 477.575 523.32C477.228 523.48 476.881 523.653 476.535 523.84L475.695 522.3C476.095 522.06 476.535 521.84 477.015 521.64C477.495 521.427 478.001 521.26 478.535 521.14C479.068 521.007 479.615 520.94 480.175 520.94C481.095 520.94 481.861 521.107 482.475 521.44C483.101 521.76 483.575 522.24 483.895 522.88C484.228 523.507 484.395 524.273 484.395 525.18V531H482.515L482.335 529.78H482.275C481.755 530.18 481.175 530.527 480.535 530.82C479.908 531.1 479.261 531.24 478.595 531.24ZM479.295 529.44C479.788 529.44 480.261 529.333 480.715 529.12C481.181 528.893 481.641 528.6 482.095 528.24V526.16C480.921 526.24 480.001 526.373 479.335 526.56C478.668 526.733 478.201 526.96 477.935 527.24C477.668 527.52 477.535 527.833 477.535 528.18C477.535 528.473 477.615 528.713 477.775 528.9C477.935 529.087 478.141 529.227 478.395 529.32C478.661 529.4 478.961 529.44 479.295 529.44ZM487.527 531V516.88H489.847V520.52L489.707 522.62H489.767C490.193 522.167 490.687 521.773 491.247 521.44C491.82 521.107 492.48 520.94 493.227 520.94C494.36 520.94 495.193 521.287 495.727 521.98C496.26 522.673 496.527 523.653 496.527 524.92V531H494.207V525.22C494.207 524.433 494.067 523.853 493.787 523.48C493.507 523.107 493.033 522.92 492.367 522.92C491.887 522.92 491.46 523.033 491.087 523.26C490.713 523.487 490.3 523.833 489.847 524.3V531H487.527ZM503.879 531.24C503.012 531.24 502.206 531.04 501.459 530.64C500.712 530.227 500.106 529.64 499.639 528.88C499.172 528.107 498.939 527.18 498.939 526.1C498.939 525.007 499.172 524.08 499.639 523.32C500.106 522.547 500.712 521.96 501.459 521.56C502.206 521.147 503.012 520.94 503.879 520.94C504.746 520.94 505.552 521.147 506.299 521.56C507.046 521.96 507.652 522.547 508.119 523.32C508.586 524.08 508.819 525.007 508.819 526.1C508.819 527.18 508.586 528.107 508.119 528.88C507.652 529.64 507.046 530.227 506.299 530.64C505.552 531.04 504.746 531.24 503.879 531.24ZM503.879 529.36C504.412 529.36 504.872 529.227 505.259 528.96C505.646 528.693 505.939 528.313 506.139 527.82C506.339 527.327 506.439 526.753 506.439 526.1C506.439 525.447 506.339 524.873 506.139 524.38C505.939 523.887 505.646 523.507 505.259 523.24C504.872 522.96 504.412 522.82 503.879 522.82C503.346 522.82 502.886 522.96 502.499 523.24C502.126 523.507 501.832 523.887 501.619 524.38C501.419 524.873 501.319 525.447 501.319 526.1C501.319 526.753 501.419 527.327 501.619 527.82C501.832 528.313 502.126 528.693 502.499 528.96C502.886 529.227 503.346 529.36 503.879 529.36ZM512.471 531V521.18H514.371L514.571 523.4H514.631C515.124 522.6 515.731 521.993 516.451 521.58C517.184 521.153 517.971 520.94 518.811 520.94C519.211 520.94 519.558 520.973 519.851 521.04C520.144 521.107 520.431 521.207 520.711 521.34L520.231 523.28C519.911 523.173 519.624 523.1 519.371 523.06C519.131 523.007 518.824 522.98 518.451 522.98C517.784 522.98 517.131 523.173 516.491 523.56C515.864 523.947 515.298 524.62 514.791 525.58V531H512.471ZM526.563 531.24C525.923 531.24 525.357 531.12 524.863 530.88C524.37 530.627 523.983 530.287 523.703 529.86C523.423 529.433 523.283 528.933 523.283 528.36C523.283 527.267 523.803 526.433 524.843 525.86C525.897 525.273 527.637 524.893 530.063 524.72C530.037 524.36 529.937 524.033 529.763 523.74C529.603 523.447 529.357 523.22 529.023 523.06C528.69 522.887 528.257 522.8 527.723 522.8C527.35 522.8 526.983 522.847 526.623 522.94C526.263 523.033 525.903 523.16 525.543 523.32C525.197 523.48 524.85 523.653 524.503 523.84L523.663 522.3C524.063 522.06 524.503 521.84 524.983 521.64C525.463 521.427 525.97 521.26 526.503 521.14C527.037 521.007 527.583 520.94 528.143 520.94C529.063 520.94 529.83 521.107 530.443 521.44C531.07 521.76 531.543 522.24 531.863 522.88C532.197 523.507 532.363 524.273 532.363 525.18V531H530.483L530.303 529.78H530.243C529.723 530.18 529.143 530.527 528.503 530.82C527.877 531.1 527.23 531.24 526.563 531.24ZM527.263 529.44C527.757 529.44 528.23 529.333 528.683 529.12C529.15 528.893 529.61 528.6 530.063 528.24V526.16C528.89 526.24 527.97 526.373 527.303 526.56C526.637 526.733 526.17 526.96 525.903 527.24C525.637 527.52 525.503 527.833 525.503 528.18C525.503 528.473 525.583 528.713 525.743 528.9C525.903 529.087 526.11 529.227 526.363 529.32C526.63 529.4 526.93 529.44 527.263 529.44Z" fill="#82E75E"/>
</svg>
