<svg width="471" height="494" viewBox="0 0 471 494" fill="none" xmlns="http://www.w3.org/2000/svg">
<path d="M181.285 138.771V126.791H157.324V138.771H181.285Z" fill="#82E75E"/>
<path d="M205.247 126.791H289.114V114.808H181.285V126.791H205.247Z" fill="#82E75E"/>
<path d="M301.095 138.771H313.078V126.791H289.115V138.771H301.095Z" fill="#82E75E"/>
<path d="M145.341 234.619V210.657H133.361V258.582H145.341V234.619Z" fill="#82E75E"/>
<path d="M205.247 222.638H181.284V234.618H193.266V246.6H181.284V234.618H169.304V258.581H181.284V270.561H205.247V258.581H217.229V234.618H205.247V222.638Z" fill="#82E75E"/>
<path d="M157.322 258.582H145.34V282.544H157.322V258.582Z" fill="#82E75E"/>
<path d="M157.322 282.544H169.302V294.524H157.322V282.544Z" fill="#82E75E"/>
<path d="M277.133 294.525H169.303V306.507H181.283V318.487H313.076V306.507H301.093V294.525H277.133Z" fill="#82E75E"/>
<path d="M169.303 330.468V378.394H181.283V318.488H169.303V330.468Z" fill="#82E75E"/>
<path d="M313.077 318.487H325.057V330.467H313.077V318.487Z" fill="#82E75E"/>
<path d="M325.058 330.468H337.038V342.448H325.058V330.468Z" fill="#82E75E"/>
<path d="M337.039 366.411H349.019V342.449H337.039V366.411Z" fill="#82E75E"/>
<path d="M349.02 366.411H361V378.391H349.02V366.411Z" fill="#82E75E"/>
<path d="M301.096 282.544H313.076V294.524H301.096V282.544Z" fill="#82E75E"/>
<path d="M313.077 270.563V282.545H325.057V258.582H313.077V270.563Z" fill="#82E75E"/>
<path d="M325.058 222.638V258.581H337.04V210.656H325.058V222.638Z" fill="#82E75E"/>
<path d="M349.02 138.77H313.077V150.751H325.057V162.733H313.077V186.695H325.057V198.675H337.039V210.655H349.019V186.695H360.999V138.769L349.02 138.77Z" fill="#82E75E"/>
<path d="M229.209 258.582H241.189V270.562H229.209V258.582Z" fill="#82E75E"/>
<path d="M289.114 222.638H265.152V234.618H277.134V246.6H265.152V234.618H253.172V258.581H265.152V270.561H289.114V258.581H301.094V234.618H289.114V222.638Z" fill="#82E75E"/>
<path d="M145.341 198.676V186.696H157.323V162.733H145.341V150.751H157.323V138.771H109.398V186.697H121.378V210.657H133.36V198.677L145.341 198.676Z" fill="#82E75E"/>
</svg>
