<svg width="66" height="115" viewBox="0 0 66 115" fill="none" xmlns="http://www.w3.org/2000/svg">
<path d="M35.5598 25.0015H40.5601V30.0017H35.5598V25.0015Z" fill="#82E75E"/>
<path d="M30.5608 35.0002H35.5611V40.0005H30.5608V35.0002Z" fill="#82E75E"/>
<path d="M5.56152 45.0012H10.5627V50.0014H5.56152V45.0012Z" fill="#82E75E"/>
<path d="M60.5613 50.0005V80.0013H65.5625V50.0005H60.5613Z" fill="#82E75E"/>
<path d="M50.5603 80.0013V54.9999H45.5619V100.001H45.5592V104.999H45.5619V105.001H35.5604V90.0013H30.5601V105.001H20.5605V54.9985H25.5608V49.9991H30.5601V54.9985H45.5619V49.9991H30.562V45.0007H25.5608V15H50.5599V25.0014H45.5614V30.0008H50.5599V39.9995H35.5599V44.9998H45.5596V48.8334H45.5614V50.0001H50.5598V44.9998H55.5601V5.0004H50.5598V0.00012207H15.5597V5.0004H10.5613V44.9998H15.5597V79.9977H5.56009V49.9992H0.559814V79.9999H5.56009V84.9993H15.5597V105.001H10.5613V114.999H30.5599V115H35.5601V114.999H55.5603V105H50.56V84.9993H60.5606V79.999L50.5603 80.0013Z" fill="#82E75E"/>
<path d="M55.562 45.0012H60.5623V50.0014H55.562V45.0012Z" fill="#82E75E"/>
</svg>
