<svg width="336" height="175" viewBox="0 0 336 175" fill="none" xmlns="http://www.w3.org/2000/svg">
<path d="M223.979 12.4527H211.536V0.0106812H111.988V12.4527H99.5458V24.8948H87.1038V124.443H124.435V149.333H136.877V161.775H149.319V149.333H161.761V161.775H186.646V149.333H199.088V124.443H236.419L236.422 24.8948H223.98L223.979 12.4527ZM136.876 87.1158V99.5579H111.987V62.2263H149.318V87.1158H136.876ZM174.202 124.445H149.313V112.003H174.202V124.445ZM211.534 99.5579H186.644V87.1158H174.202V62.2263H211.534V99.5579Z" fill="#82E75E"/>
<path d="M311.088 12.4327V0.0193481H298.646V12.4534H286.203V24.8955H261.314V37.3375H248.872V62.227H273.761V49.7849H298.651V37.3429H323.54V24.8588H323.548V24.9005H335.99V12.4584L311.088 12.4327ZM311.09 24.8981V24.8565V24.8981Z" fill="#82E75E"/>
<path d="M62.2197 24.8921H37.3329V0H24.8881V24.8921H0.00134277V37.3395H24.8881V49.7816H37.3329V62.2237H62.2197V74.6657H74.6617V37.3395H62.2197V24.8921Z" fill="#82E75E"/>
<path d="M298.642 136.887V124.442H273.755V111.997H248.868V136.887H273.755V149.329H298.613L298.642 174.224H311.086V161.779H311.037V161.774H311.086V161.753H311.097V161.774H323.539L323.528 136.887L298.642 136.887Z" fill="#82E75E"/>
<path d="M49.7736 124.447H24.8868V136.892H0V149.334H12.4421V174.177H24.8868V161.766H37.3315V149.335H49.7736V136.893H74.6604V112.003H49.7736V124.447Z" fill="#82E75E"/>
</svg>
