<svg width="231" height="232" viewBox="0 0 231 232" fill="none" xmlns="http://www.w3.org/2000/svg">
<path fill-rule="evenodd" clip-rule="evenodd" d="M0.840085 173.464L20.0208 173.464L20.0208 58.3859L0.84008 58.3859L0.840085 173.464ZM20.0208 58.3859L39.1999 58.3859L39.1999 39.2052L20.0208 39.2052L20.0208 58.3859ZM39.1999 39.2052L58.379 39.2052L58.379 20.0261L39.1999 20.0261L39.1999 39.2052ZM58.379 20.0261L173.461 20.0261L173.461 0.847023L58.379 0.847028L58.379 20.0261ZM173.461 20.0261L173.461 39.2052L192.64 39.2052L192.64 20.0261L173.461 20.0261ZM192.64 39.2052L192.64 58.3859L211.819 58.3859L211.819 39.2052L192.64 39.2052ZM211.819 58.3859L211.819 173.464L231 173.464L231 58.3859L211.819 58.3859ZM211.819 173.464L192.64 173.464L192.64 192.645L211.819 192.645L211.819 173.464ZM192.64 192.645L173.461 192.645L173.461 211.824L192.64 211.824L192.64 192.645ZM173.461 211.824L58.379 211.824L58.379 231.003L173.461 231.003L173.461 211.824ZM58.379 211.824L58.379 192.645L39.1999 192.645L39.1999 211.824L58.379 211.824ZM39.1999 192.645L39.1999 173.464L20.0208 173.464L20.0208 192.645L39.1999 192.645ZM39.1999 154.284L192.638 154.284L192.638 135.104L173.459 135.104L173.459 115.924L154.279 115.924L154.279 96.7453L135.099 96.7453L135.099 77.5646L96.7392 77.5646L96.7392 96.7453L77.5602 96.7453L77.5602 115.924L58.3794 115.924L58.3794 135.104L39.2003 135.104L39.1999 154.284Z" fill="#82E75E"/>
</svg>
